<svg xmlns="http://www.w3.org/2000/svg" xmlns:xlink="http://www.w3.org/1999/xlink" preserveAspectRatio="xMidYMid" width="30.344" height="30" viewBox="0 0 30.344 30">
  <defs>
    <style>
      .cls-1 {
        fill: #6ac4d9;
        fill-rule: evenodd;
      }
    </style>
  </defs>
  <path d="M15.177,-0.001 C23.555,-0.001 30.348,6.715 30.348,14.999 C30.348,23.283 23.555,29.999 15.177,29.999 C6.798,29.999 0.006,23.283 0.006,14.999 C0.006,6.715 6.798,-0.001 15.177,-0.001 ZM8.197,17.039 C8.197,17.039 10.051,17.651 10.822,17.651 C10.822,17.651 11.851,18.040 12.557,16.999 C12.557,16.999 12.795,16.675 12.473,16.518 C12.473,16.518 9.531,16.194 9.755,15.683 C9.755,15.683 9.741,15.394 10.147,15.460 C10.147,15.460 10.715,14.428 10.490,14.297 C10.490,14.297 10.140,14.009 10.420,13.983 C10.420,13.983 11.245,14.087 11.511,14.153 C11.511,14.153 11.693,14.091 11.525,13.973 C11.357,13.855 11.077,13.590 11.133,13.537 C11.133,13.537 11.231,13.315 11.679,13.498 C11.679,13.498 11.929,13.245 11.803,13.115 C11.803,13.115 11.425,12.905 11.607,12.734 C11.607,12.734 12.461,11.730 13.412,13.314 C13.412,13.314 13.651,13.616 13.679,13.327 C13.679,13.327 14.843,10.226 16.370,9.977 C16.370,9.977 16.860,10.069 16.958,9.924 C16.958,9.924 17.383,9.767 17.523,9.899 C17.523,9.899 17.663,10.095 17.831,9.977 C17.831,9.977 18.434,9.754 18.252,10.121 C18.252,10.121 17.675,10.717 17.465,10.731 C17.254,10.743 17.297,11.009 17.479,11.035 C17.479,11.035 19.999,11.205 19.999,12.962 C19.999,12.962 20.146,13.379 20.622,12.946 C20.622,12.946 21.343,12.517 21.526,12.496 C21.526,12.496 21.722,12.379 21.694,12.654 C21.694,12.654 21.175,13.494 20.643,13.730 C20.643,13.730 20.321,14.110 20.783,14.031 C20.783,14.031 21.233,13.944 21.443,13.827 C21.443,13.827 21.989,13.577 21.737,14.023 C21.737,14.023 20.587,14.722 20.335,14.722 C20.335,14.722 20.167,14.761 20.167,14.905 C20.167,14.905 20.013,19.690 13.596,19.690 C13.596,19.690 10.383,19.687 8.281,17.379 C8.281,17.379 7.875,16.973 8.197,17.039 Z" class="cls-1"/>
</svg>
