<svg xmlns="http://www.w3.org/2000/svg" xmlns:xlink="http://www.w3.org/1999/xlink" preserveAspectRatio="xMidYMid" width="30.343" height="30" viewBox="0 0 30.343 30">
  <defs>
    <style>
      .cls-1 {
        fill: #5d99c3;
        filter: url(#color-overlay-1);
        fill-rule: evenodd;
      }
    </style>

    <filter id="color-overlay-1" filterUnits="userSpaceOnUse">
      <feFlood flood-color="#9c9c9c"/>
      <feComposite operator="in" in2="SourceGraphic"/>
      <feBlend in2="SourceGraphic" result="solidFill"/>
    </filter>
  </defs>
  <path d="M15.160,29.999 C6.782,29.999 -0.011,23.283 -0.011,15.000 C-0.011,6.715 6.782,-0.001 15.160,-0.001 C23.539,-0.001 30.331,6.715 30.331,15.000 C30.331,23.283 23.539,29.999 15.160,29.999 ZM19.427,12.187 C19.427,9.790 17.057,9.470 17.062,9.471 C16.759,9.427 13.555,9.373 12.296,9.373 C12.048,9.373 11.360,9.425 11.360,10.357 C11.360,12.585 11.360,17.525 11.360,19.698 C11.360,20.223 11.920,20.624 12.296,20.624 C13.555,20.624 15.639,20.624 15.639,20.624 C14.745,20.624 20.082,20.889 19.901,17.343 C19.833,16.013 19.038,14.926 17.959,14.670 L17.959,14.607 C18.980,14.188 19.427,13.330 19.427,12.187 ZM15.634,18.749 C14.723,18.750 14.212,18.749 14.212,18.749 L14.212,15.937 C14.212,15.937 15.076,15.923 15.634,15.937 C15.491,15.933 17.057,15.857 17.057,17.343 C17.057,17.696 16.884,18.749 15.634,18.749 ZM15.300,13.985 C14.823,14.010 14.212,14.062 14.212,14.062 L14.212,11.249 C14.212,11.249 14.496,11.229 15.160,11.249 C16.638,11.292 16.564,12.260 16.564,12.687 C16.564,13.978 15.305,13.985 15.300,13.985 Z" class="cls-1"/>
</svg>
